<svg id="Layer_1" data-name="Layer 1" xmlns="http://www.w3.org/2000/svg" viewBox="0 0 20 20"><defs><style>.cls-1{fill:none;}</style></defs><title>afl-outline</title><rect class="cls-1" width="20" height="20"/><g id="Rugby"><path d="M17,3a3.74,3.74,0,0,0-2.8-1C11.8,2,8.7,3.5,6.1,6.1,2.2,10,.9,14.8,3,17a3.74,3.74,0,0,0,2.8,1c2.4,0,5.5-1.5,8.1-4.1C17.8,10.1,19.1,5.2,17,3ZM5.5,16.4a2.85,2.85,0,0,1-1.3,0c-.2-.2-.3-.6.5-2.2a21,21,0,0,1,4-5.4c3.2-3.2,5.6-5.2,7-5.2a.75.75,0,0,1,.5.1c.2.2.2,1.1-.5,2.7a21,21,0,0,1-4,5.4C8.6,15,6.6,16,5.5,16.4ZM6.8,6.8C9,4.5,12.2,2.9,14.6,2.9c-1.8.7-4.4,3-6.6,5.2a23.58,23.58,0,0,0-5,7.4C2.6,11.9,4.5,9.1,6.8,6.8Zm6.4,6.4C11,15.4,8.3,16.9,6.1,17a20.6,20.6,0,0,0,6.4-4.5A18.51,18.51,0,0,0,17,6C16.9,8.1,15.5,10.9,13.2,13.2Z"/></g><path d="M7.8,10.6h0A1.9,1.9,0,0,1,5.9,8.7c0-.1.1-.3.2-.3h0a.22.22,0,0,1,.2.2A1.43,1.43,0,0,0,7.7,10c.1,0,.2.1.2.3C8.1,10.5,7.9,10.6,7.8,10.6Z"/><path d="M6.4,12.6h0a1.9,1.9,0,0,1-1.9-1.9c0-.1.1-.3.2-.3h0a.32.32,0,0,1,.3.3,1.43,1.43,0,0,0,1.4,1.4c.1,0,.2.1.2.3C6.6,12.4,6.5,12.6,6.4,12.6Z"/><path d="M12.9,6.2A2,2,0,0,1,11,4.4c0-.1.1-.3.2-.3h0a.22.22,0,0,1,.2.2,1.35,1.35,0,0,0,1.4,1.3h0a.22.22,0,0,1,.2.2C13.2,6.1,13.1,6.3,12.9,6.2Z"/><path d="M11,7.6A2,2,0,0,1,9.1,5.8c0-.1.1-.3.2-.3h0a.22.22,0,0,1,.2.2A1.35,1.35,0,0,0,10.9,7h0a.22.22,0,0,1,.2.2C11.3,7.5,11.2,7.6,11,7.6Z"/><path d="M9.4,9A2,2,0,0,1,7.5,7.2c0-.1.1-.3.2-.3h0a.32.32,0,0,1,.3.3A1.35,1.35,0,0,0,9.4,8.5h0a.22.22,0,0,1,.2.2C9.6,8.9,9.5,9,9.4,9Z"/></svg>