<svg id="Layer_1" data-name="Layer 1" xmlns="http://www.w3.org/2000/svg" viewBox="0 0 20 20"><defs><style>.cls-1{fill:none;}</style></defs><title>basketball-outline</title><rect class="cls-1" width="20" height="20"/><g id="Basketball"><path d="M17.9,8.35a3.81,3.81,0,0,0-.3-1,8.06,8.06,0,0,0-3.4-4.3,3.13,3.13,0,0,0-1-.5A8.66,8.66,0,0,0,10,2a7.31,7.31,0,0,0-3,.6H7c-.4.2-.9.4-1.3.6a7.61,7.61,0,0,0-3,3.6,6.94,6.94,0,0,0-.5,1.3A11.08,11.08,0,0,0,2,10a8.75,8.75,0,0,0,.2,1.6c.1.3.2.6.3,1h0a7.76,7.76,0,0,0,3.3,4.2,10.91,10.91,0,0,0,1.1.6h0a8.33,8.33,0,0,0,3.2.7,8.84,8.84,0,0,0,3.3-.7,8.79,8.79,0,0,0,1-.6,7.18,7.18,0,0,0,2.4-2.5,7.54,7.54,0,0,0,.6-1.3,8,8,0,0,0,.6-3C18,9.45,17.9,8.85,17.9,8.35Zm-3.8-4a7.23,7.23,0,0,1,2.5,3.4l-.9.6a2.7,2.7,0,0,0-.7.8A15.76,15.76,0,0,0,13.5,8,22.54,22.54,0,0,0,14.1,4.35ZM10,3a7.22,7.22,0,0,1,3.2.8,20.81,20.81,0,0,1-.6,3.6,8.82,8.82,0,0,0-2-.9,3.89,3.89,0,0,0-2.2-3.3A7.77,7.77,0,0,1,10,3Zm-3,.7c1.4.6,2.4,1.5,2.5,2.6A10.07,10.07,0,0,0,7,6a10.32,10.32,0,0,0-3,.4A6.51,6.51,0,0,1,7,3.65ZM3,10a6.37,6.37,0,0,1,.4-2.4A10.88,10.88,0,0,1,7,7a9.86,9.86,0,0,1,2.4.3c-.4,1.3-2.3,2.9-6.3,4A5.7,5.7,0,0,1,3,10Zm3.8,6.2a6.89,6.89,0,0,1-3.4-3.9c4.4-1.2,6.4-3.1,7-4.8a6.63,6.63,0,0,1,1.9.9A15.55,15.55,0,0,1,9,14.25,9.68,9.68,0,0,1,6.8,16.15Zm6.6-.1A6.65,6.65,0,0,1,10,17a6.65,6.65,0,0,1-2.1-.3A15.37,15.37,0,0,0,9.8,15a16.17,16.17,0,0,0,3.4-6,6.89,6.89,0,0,1,1.3,1.1A17.34,17.34,0,0,0,13.4,16.05Zm1-.7a15.84,15.84,0,0,1,.8-4.5,5.64,5.64,0,0,1,1.1,2A5.78,5.78,0,0,1,14.4,15.35Zm2.4-3.9a9.06,9.06,0,0,0-1.1-1.6,5.55,5.55,0,0,1,.6-.8c.2-.1.3-.3.5-.4A3.18,3.18,0,0,1,17,10,7.72,7.72,0,0,1,16.8,11.45Z"/></g></svg>