<svg id="Layer_1" data-name="Layer 1" xmlns="http://www.w3.org/2000/svg" viewBox="0 0 20 20"><defs><style>.cls-1{fill:none;}</style></defs><title>football-outline</title><rect class="cls-1" width="20" height="20"/><g id="Football"><path d="M10,2A8,8,0,0,0,2.4,12.6,8,8,0,0,0,10,18h0A8,8,0,0,0,17.6,7.4,7.87,7.87,0,0,0,10,2h0m0,1a7.72,7.72,0,0,1,1.5.2L10.3,4a.64.64,0,0,1-.6,0L8.5,3.2A7.72,7.72,0,0,1,10,3m6,3.5a6.6,6.6,0,0,1,.9,2.8l-1.2-.9c-.2-.1-.2-.3-.2-.5ZM10.7,4.9l1.7-1.2a.45.45,0,0,1,.5,0,6.91,6.91,0,0,1,2.2,1.6.44.44,0,0,1,.1.5l-.6,2a.32.32,0,0,1-.3.3l-1.1.4c-.2.1-.3,0-.4-.1l-2-1.5c-.2-.1-.3-.2-.3-.4V5.3A.76.76,0,0,1,10.7,4.9Zm-.4,2.9L12,9.1c.2.1.2.4.2.6l-.6,2a.85.85,0,0,1-.6.2H9a.55.55,0,0,1-.5-.3l-.6-2A.44.44,0,0,1,8,9.1L9.7,7.9A.47.47,0,0,1,10.3,7.8ZM7.6,3.7,9.3,4.9a.76.76,0,0,1,.2.4V6.5a.52.52,0,0,1-.2.4l-2,1.5a.45.45,0,0,1-.5,0L5.7,8.1c-.1-.1-.3-.2-.3-.4l-.6-2a.44.44,0,0,1,.1-.5A6.23,6.23,0,0,1,7,3.7.64.64,0,0,1,7.6,3.7ZM4,6.5l.4,1.4a.37.37,0,0,1-.2.5L3,9.3A6.72,6.72,0,0,1,4,6.5Zm-.1,6.9a7.86,7.86,0,0,1-.8-2.6.76.76,0,0,1,.2-.5L5,9.1c.1-.1.2-.1.4-.1l1.1.4q.3.15.3.3l.8,2.4c0,.2,0,.3-.1.4l-.7.9a.52.52,0,0,1-.4.2H4.3C4.1,13.6,4,13.6,3.9,13.4ZM5,14.9l-.3-.3H6.2a.55.55,0,0,1,.5.3l.5,1.4A4.84,4.84,0,0,1,5,14.9Zm6.7,1.6c-.1.2-.2.3-.4.3A5.07,5.07,0,0,1,10,17a5.28,5.28,0,0,1-1.3-.1c-.2,0-.3-.2-.4-.3l-.7-2c-.1-.2,0-.3.1-.5l.7-.9a.52.52,0,0,1,.4-.2h2.5a.52.52,0,0,1,.4.2l.7.9a.75.75,0,0,1,.1.5Zm1.1-.1.5-1.4a.55.55,0,0,1,.5-.3h1.4A8.07,8.07,0,0,1,12.8,16.4Zm2.9-2.7H13.6a.52.52,0,0,1-.4-.2l-.7-.9a.6.6,0,0,1-.1-.4l.8-2.4q.15-.3.3-.3L14.6,9a.6.6,0,0,1,.4.1l1.7,1.3a.76.76,0,0,1,.2.5,7.86,7.86,0,0,1-.8,2.6C16,13.6,15.9,13.6,15.7,13.7Z"/></g></svg>