<svg id="Layer_1" data-name="Layer 1" xmlns="http://www.w3.org/2000/svg" viewBox="0 0 20 20"><defs><style>.cls-1{fill:none;}</style></defs><title>ice-hockey</title><g id="Hockey"><path d="M10,10c2.65,0,5.5-.63,5.5-2S12.65,6,10,6s-5.5.63-5.5,2S7.35,10,10,10Zm0-3c2.9,0,4.4.72,4.5,1-.1.28-1.6,1-4.5,1S5.58,8.27,5.5,8C5.58,7.73,7.07,7,10,7Z"/><path d="M10,4C5.51,4,2,5.76,2,8v4c0,2.24,3.51,4,8,4s8-1.76,8-4V8C18,5.76,14.49,4,10,4Zm0,1c4.12,0,7,1.58,7,3s-2.88,3-7,3S3,9.42,3,8,5.88,5,10,5Zm0,10c-4.12,0-7-1.58-7-3V10c1.35,1.23,4,2,7,2s5.65-.81,7-2v2C17,13.42,14.12,15,10,15Z"/></g><rect class="cls-1" width="20" height="20"/></svg>