<svg id="Layer_1" data-name="Layer 1" xmlns="http://www.w3.org/2000/svg" viewBox="0 0 20 20"><defs><style>.cls-1{fill:none;}</style></defs><title>rugby-l-outline</title><rect class="cls-1" width="20" height="20"/><g id="Rugby"><path d="M17,3a3.86,3.86,0,0,0-2.8-1C11.8,2,8.7,3.5,6.1,6.1,2.2,9.9.9,14.8,3,17a3.86,3.86,0,0,0,2.8,1c2.4,0,5.5-1.5,8.1-4.1C17.8,10.1,19.1,5.2,17,3ZM4.2,16.4c-.1,0-.4,0-.5-.1s-.3-1.1.5-2.7a22.7,22.7,0,0,1,4-5.4c3.2-3.2,6.1-4.6,7.5-4.6.1,0,.4,0,.5.1s.3,1.1-.5,2.7a19.7,19.7,0,0,1-3.9,5.4C8.6,14.9,5.6,16.4,4.2,16.4ZM6.8,6.8C9,4.6,11.7,3.1,13.9,3A20.39,20.39,0,0,0,7.5,7.5,20.65,20.65,0,0,0,3,14C3.1,11.9,4.5,9.1,6.8,6.8Zm6.4,6.4C11,15.4,8.3,16.9,6.1,17a20.39,20.39,0,0,0,6.4-4.5A20.65,20.65,0,0,0,17,6C16.9,8.1,15.5,10.9,13.2,13.2Z"/></g></svg>