<svg width="496" height="512" xmlns="http://www.w3.org/2000/svg" data-name="Layer 1">

 <title>afl-outline</title>
 <g>
  <title>Layer 1</title>
  <g stroke="null" id="svg_9">
   <rect stroke="null" x="-71" y="-57.00002" id="svg_1" fill="none" height="600.00004" width="600.00004" class="cls-1"/>
   <path stroke="null" id="svg_2" d="m459.64783,45.14574a112.20001,112.20001 0 0 0 -83.99997,-30c-72.00006,0 -165.00006,45.00001 -243.00011,122.99999c-116.99998,117.00005 -155.99996,261.00005 -93,327.00005a112.20001,112.20001 0 0 0 84.00005,30c72.00003,0 164.99997,-45 242.99994,-123.00006c117.00009,-113.99994 156.00009,-260.99998 93.00009,-326.99998zm-345.00001,402.00001a85.5,85.5 0 0 1 -39.00005,0c-6,-5.99994 -8.99997,-18 15.00005,-65.99997a630.00006,630.00006 0 0 1 119.99998,-162.00003c95.99997,-96.00001 168.00003,-156.00002 209.99997,-156.00002a22.5,22.5 0 0 1 15.00003,3.00002c6,5.99998 6,32.99998 -15.00003,80.99998a630.00006,630.00006 0 0 1 -120,162.00005c-92.99994,95.99997 -152.99997,125.99997 -185.99995,137.99997zm38.99999,-287.99998c65.99995,-69.00004 161.99992,-117.00003 234.00005,-117.00003c-54.00009,20.99999 -132.00006,90.00001 -198.00003,156.00001a707.40002,707.40002 0 0 0 -150.00008,222c-11.99997,-108.00003 45.00006,-191.99998 114.00006,-260.99998zm192.00002,191.99998c-66.00003,66 -147.00003,111 -213.00008,114.00003a618.00006,618.00006 0 0 0 192.00005,-135.00003a555.30005,555.30005 0 0 0 135.00003,-195c-3.00006,63 -45,147 -114,216z"/>
   <path stroke="null" id="svg_3" d="m184.8624,274.36032l0,0a57.00001,57.00001 0 0 1 -57.00006,-57.00003c0,-2.99995 3.00003,-8.99997 6,-8.99997l0,0a6.6,6.6 0 0 1 6,6.00002a42.90001,42.90001 0 0 0 42.00003,42.00002c3.00003,0 6,3 6,9c6,5.99997 0,8.99997 -2.99997,8.99997z"/>
   <path stroke="null" id="svg_4" d="m142.86238,334.36035l0,0a57.00001,57.00001 0 0 1 -57,-57.00003c0,-3 2.99997,-9 6.00001,-9l0,0a9.6,9.6 0 0 1 8.99996,9a42.90001,42.90001 0 0 0 42.00003,42.00003c2.99995,0 6,2.99997 6,8.99997c0,0 -3.00005,6.00003 -6,6.00003z"/>
   <path stroke="null" id="svg_5" d="m337.86237,142.36031a60,60 0 0 1 -57,-53.99998c0,-3 3.00006,-9.00001 6,-9.00001l0,0a6.6,6.6 0 0 1 5.99994,6.00001a40.5,40.5 0 0 0 42.00003,39l0,0a6.6,6.6 0 0 1 6,6c6.00006,8.99998 3.00003,15.00002 -2.99997,11.99998z"/>
   <path stroke="null" id="svg_6" d="m280.86237,184.36032a60,60 0 0 1 -56.99998,-54c0,-3.00002 2.99997,-9 6,-9l0,0a6.6,6.6 0 0 1 6,5.99998a40.5,40.5 0 0 0 41.99995,39.00003l0,0a6.6,6.6 0 0 1 6.00009,5.99997c5.99991,9.00002 2.99994,12.00002 -3.00006,12.00002z"/>
   <path stroke="null" id="svg_7" d="m232.86235,225.14577a60,60 0 0 1 -57,-54.00003c0,-3 2.99997,-9 6.00002,-9l0,0a9.6,9.6 0 0 1 9.00003,9a40.5,40.5 0 0 0 41.99995,39.00002l0,0a6.6,6.6 0 0 1 6,5.99997c0,6.00005 -2.99997,9.00005 -6,9.00005z"/>
  </g>
 </g>
</svg>